<mxfile host="app.diagrams.net" modified="2020-08-15T10:05:08.860Z" agent="5.0 (Macintosh; Intel Mac OS X 10_14_0) AppleWebKit/537.36 (KHTML, like Gecko) Chrome/83.0.4103.116 Safari/537.36" etag="jcnlKwDcVP04kUC2qN1X" version="13.6.2" type="github">
  <diagram id="9yGuTlsZ8Y7SOnh658ti" name="第 1 页">
    <mxGraphModel dx="2066" dy="1041" grid="0" gridSize="10" guides="1" tooltips="1" connect="1" arrows="1" fold="1" page="0" pageScale="1" pageWidth="827" pageHeight="1169" background="none" math="0" shadow="0">
      <root>
        <mxCell id="0" />
        <mxCell id="1" parent="0" />
        <mxCell id="RH4Jt7Gg77EERAA3Lstr-1" value="" style="rounded=0;whiteSpace=wrap;html=1;dashed=1;" vertex="1" parent="1">
          <mxGeometry x="195" y="135" width="402" height="98" as="geometry" />
        </mxCell>
        <mxCell id="RH4Jt7Gg77EERAA3Lstr-2" value="Cookie" style="text;html=1;strokeColor=none;fillColor=none;align=center;verticalAlign=middle;whiteSpace=wrap;rounded=0;dashed=1;fontSize=15;" vertex="1" parent="1">
          <mxGeometry x="202" y="106" width="40" height="20" as="geometry" />
        </mxCell>
        <mxCell id="RH4Jt7Gg77EERAA3Lstr-3" value="&lt;p style=&quot;margin: 0px ; margin-top: 4px ; text-align: center ; text-decoration: underline&quot;&gt;&lt;b&gt;a.com&lt;/b&gt;&lt;/p&gt;&lt;hr&gt;&lt;p style=&quot;margin: 0px ; margin-left: 8px&quot;&gt;sessionkey&lt;/p&gt;" style="verticalAlign=top;align=left;overflow=fill;fontSize=12;fontFamily=Helvetica;html=1;" vertex="1" parent="1">
          <mxGeometry x="412" y="154.5" width="160" height="59" as="geometry" />
        </mxCell>
        <mxCell id="RH4Jt7Gg77EERAA3Lstr-5" value="&lt;p style=&quot;margin: 0px ; margin-top: 4px ; text-align: center ; text-decoration: underline&quot;&gt;&lt;b&gt;cas&lt;/b&gt;&lt;b&gt;.com&lt;/b&gt;&lt;/p&gt;&lt;hr&gt;&lt;p style=&quot;margin: 0px ; margin-left: 8px&quot;&gt;sid&lt;/p&gt;" style="verticalAlign=top;align=left;overflow=fill;fontSize=12;fontFamily=Helvetica;html=1;" vertex="1" parent="1">
          <mxGeometry x="224" y="154.5" width="160" height="59" as="geometry" />
        </mxCell>
        <mxCell id="RH4Jt7Gg77EERAA3Lstr-14" value="Session" style="text;html=1;strokeColor=none;fillColor=none;align=center;verticalAlign=middle;whiteSpace=wrap;rounded=0;dashed=1;fontSize=14;" vertex="1" parent="1">
          <mxGeometry x="202" y="267" width="40" height="20" as="geometry" />
        </mxCell>
        <mxCell id="RH4Jt7Gg77EERAA3Lstr-15" value="" style="rounded=0;whiteSpace=wrap;html=1;dashed=1;" vertex="1" parent="1">
          <mxGeometry x="195" y="297" width="402" height="126" as="geometry" />
        </mxCell>
        <mxCell id="RH4Jt7Gg77EERAA3Lstr-32" value="&lt;p style=&quot;margin: 0px ; margin-top: 4px ; text-align: center&quot;&gt;&lt;b&gt;CAS Server&lt;/b&gt;&lt;/p&gt;&lt;hr size=&quot;1&quot;&gt;&lt;p style=&quot;margin: 0px ; margin-left: 4px&quot;&gt;sid: userinfo&lt;/p&gt;&lt;p style=&quot;margin: 0px ; margin-left: 4px&quot;&gt;ticket: sessionkey(一次性使用)&lt;/p&gt;&lt;p style=&quot;margin: 0px ; margin-left: 4px&quot;&gt;sessionkey:userinfo&lt;/p&gt;" style="verticalAlign=top;align=left;overflow=fill;fontSize=12;fontFamily=Helvetica;html=1;" vertex="1" parent="1">
          <mxGeometry x="210" y="316" width="178" height="88" as="geometry" />
        </mxCell>
        <mxCell id="RH4Jt7Gg77EERAA3Lstr-33" value="&lt;p style=&quot;margin: 0px ; margin-top: 4px ; text-align: center&quot;&gt;&lt;b&gt;a.com&amp;nbsp;&lt;/b&gt;&lt;/p&gt;&lt;hr size=&quot;1&quot;&gt;&amp;nbsp;sessionkey&lt;span&gt;: userinfo&lt;/span&gt;&lt;br&gt;&lt;p style=&quot;margin: 0px ; margin-left: 4px&quot;&gt;&lt;br&gt;&lt;/p&gt;&lt;p style=&quot;margin: 0px ; margin-left: 4px&quot;&gt;&lt;br&gt;&lt;/p&gt;" style="verticalAlign=top;align=left;overflow=fill;fontSize=12;fontFamily=Helvetica;html=1;" vertex="1" parent="1">
          <mxGeometry x="404" y="316" width="178" height="88" as="geometry" />
        </mxCell>
      </root>
    </mxGraphModel>
  </diagram>
</mxfile>
